<?xml version="1.0" encoding="UTF-8"?>
<svg id="Layer_1" data-name="Layer 1" xmlns="http://www.w3.org/2000/svg" viewBox="0 0 997.54 997.54">
  <defs>
    <style>
      .cls-1 {
        fill: #062ef9;
      }
    </style>
  </defs>
  <path class="cls-1" d="M637.64,224c0,205.63-166.68,372.23-372.23,372.23-21.22,0-42.03-1.78-62.29-5.2v-192.55c11.43,2.12,23.2,3.22,35.18,3.22,107.81,0,195.15-87.41,195.15-195.15,0-8.97-.62-17.87-1.85-26.49h203.43c1.71,14.37,2.6,29.09,2.6,43.95Z"/>
  <g>
    <rect class="cls-1" x="590.84" y="404.8" width="203.59" height="203.59"/>
    <path class="cls-1" d="M590.85,608.38v209.12h-200.7c-.14-1.85-.14-3.7-.14-5.54,0-111.57,89.67-202.13,200.83-203.57Z"/>
  </g>
</svg>